<?xml version="1.0" encoding="UTF-8"?><svg id="_レイヤー_2" xmlns="http://www.w3.org/2000/svg" viewBox="0 0 327.84 103.94"><defs><style>.cls-1{fill:#fff;stroke-width:0px;}</style></defs><g id="_レイヤー_1-2"><path class="cls-1" d="M42.41,68.57c-.77-.95-1.81-1.75-3.12-2.39-1.31-.64-2.73-1.09-4.27-1.34-1.54-.25-3.11-.36-4.73-.33-4.78.17-9.41-.54-13.87-2.13-.38-.12-.82-.44-1.32-.97-.5-.53-.8-1.07-.91-1.62-.37-2.03-.41-4.13-.1-6.29.3-2.17.88-3.92,1.73-5.27,1.35-2.23,4.12-4.46,8.29-6.71,4.17-2.25,9.04-3.88,14.59-4.9,3.32-.61,5.93-.83,7.83-.66,1.9.17,2.95.79,3.15,1.85.32,1.73.33,3.11.03,4.14-.3,1.03-.69,1.75-1.17,2.16-.48.41-1.36,1.01-2.62,1.79-1.36.77-2.52,1.54-3.49,2.29s-1.79,1.45-2.46,2.1c-.67.65-1.09.99-1.28,1.02-.23.04-.36-.03-.4-.21-.07-.39.23-1.06.9-2.01.67-.95,1.55-1.83,2.64-2.65,1.14-.9,1.7-1.44,1.67-1.63-.06-.3-.79-.32-2.19-.06-4.26.79-8.14,1.89-11.61,3.32-3.48,1.43-6.15,2.96-8,4.58-1.86,1.63-2.67,3.09-2.43,4.38.15.81.69,1.3,1.61,1.47.93.18,2.94.38,6.03.62,3.09.24,5.9.65,8.41,1.24,3.61.81,6.36,1.84,8.25,3.09,1.9,1.25,3.02,2.83,3.38,4.74.24,1.31.17,2.69-.22,4.13-.39,1.44-1.09,2.83-2.11,4.16-1.02,1.33-2.26,2.5-3.72,3.51-1.25.83-2.87,1.68-4.84,2.57-1.97.89-4.13,1.7-6.49,2.43-2.36.73-4.63,1.3-6.82,1.7-4.03.74-7.35.96-9.94.65s-4.03-1.24-4.32-2.78c-.13-.69.09-1.85.65-3.46.56-1.62,1.36-2.78,2.39-3.5.92-.57,1.83-.98,2.75-1.2.91-.23,1.39-.2,1.44.07.01.07,0,.14-.07.23s-.13.15-.21.22c-.08.06-.17.13-.25.19-.43.27-.78.48-1.04.64-.27.16-.48.3-.63.44s-.21.3-.18.48c.09.48,2.52.29,7.29-.59,4.15-.76,7.52-1.54,10.12-2.33,2.6-.79,4.84-1.76,6.72-2.92,1.88-1.16,3.53-2.58,4.93-4.27Z"/><path class="cls-1" d="M78.06,61.08l.4,2.18c-1.63,2.42-3.05,4.42-4.28,5.99-1.22,1.57-2.32,2.79-3.29,3.66-.97.87-1.84,1.38-2.6,1.52-1.8.33-2.89-.56-3.28-2.68-.31-1.71-.12-3.79.58-6.24.7-2.45,1.82-5.39,3.36-8.82-.93.77-1.79,1.61-2.57,2.53-.78.92-1.46,1.85-2.02,2.8-.56.95-1.03,1.76-1.41,2.42-1.19,1.96-2.31,3.95-3.37,5.96s-1.78,3.34-2.17,3.96c-.39.62-.8.97-1.24,1.05-1.8.33-3.1-1.72-3.92-6.14-.27-1.45-.34-3.09-.23-4.93.11-1.83.86-4.36,2.25-7.6,2.92-6.78,5.46-12.36,7.63-16.72s4.01-7.71,5.54-10.03c1.53-2.32,2.62-3.51,3.27-3.59.82-.08,1.5-.04,2.04.12.54.16.84.4.9.73.11.58-.12,1.6-.67,3.07-.55,1.47-1.54,3.79-2.95,6.96-1.55,3.36-2.65,5.73-3.3,7.1-.65,1.37-1.64,3.33-2.98,5.87-1.33,2.55-2.56,4.82-3.68,6.83-1.12,2.01-2.42,4.19-3.89,6.56l.76,4.15c2.46-4,4.61-7.31,6.47-9.91,1.86-2.61,3.46-4.61,4.83-6.02,1.36-1.41,2.41-2.18,3.15-2.31.69-.13,1.41.16,2.16.87.75.71,1.17,1.33,1.27,1.86.04.23-.02.54-.19.93-1.29,2.29-2.31,4.17-3.05,5.66-.74,1.48-1.28,2.79-1.62,3.91-.34,1.12-.44,2.05-.31,2.79.2,1.08.82,1.53,1.86,1.34,1.11-.2,3.29-2.14,6.54-5.82Z"/><path class="cls-1" d="M80.97,54.14c2.92-3.83,5.88-6.81,8.89-8.97,3.01-2.15,5.42-3.39,7.21-3.72.48-.09.97.03,1.46.36.49.33.9.73,1.24,1.22.34.49.53.86.58,1.11.08.41-.03.75-.32,1.01-.29.26-.81.6-1.56,1.02.23.34.52.77.88,1.3.36.53.64.96.85,1.29.2.33.33.64.38.91.1.55-.27,1.69-1.11,3.4-.84,1.72-1.42,2.97-1.74,3.77-.32.8-.38,1.71-.19,2.75.31,1.71,1.25,2.41,2.82,2.13s3.86-2.27,6.74-5.92l.39,2.11c-4.64,7.55-8.21,11.56-10.73,12.02-.9.17-1.59-.01-2.08-.53s-.84-1.35-1.05-2.51c-.34-1.82-.16-4.58.51-8.28-2.68,4.35-4.69,7.47-6.04,9.35-1.35,1.88-2.55,2.92-3.61,3.11-.51.09-1.22-.23-2.14-.96-.92-.74-1.81-1.75-2.65-3.03-.84-1.29-1.4-2.68-1.68-4.18-.2-1.08-.26-2.01-.19-2.77s.34-1.58.8-2.45c.46-.87,1.23-2.05,2.32-3.54ZM96.83,47.29c-5.49,3.85-9.33,6.96-11.52,9.34-2.19,2.38-3.11,4.59-2.73,6.62.14.74.37,1.32.71,1.75.34.43.73.6,1.17.52.25-.05.67-.29,1.26-.73,2.16-1.87,4.03-4.14,5.61-6.81,1.58-2.66,3.42-6.22,5.5-10.68Z"/><path class="cls-1" d="M106.94,58.51l-.41-2.25c.97-1.7,1.69-3.13,2.14-4.29-.78-.12-1.38-.33-1.78-.64-.4-.31-.67-.83-.81-1.57-.15-.83,0-1.94.46-3.34.46-1.39,1.09-2.74,1.9-4.03.81-1.29,1.6-2.18,2.37-2.65.29-.22.59-.36.89-.41.46-.08.73.09.81.53.07.39-.14,1.25-.63,2.58,4.61-1.61,7.54-2.53,8.79-2.76.48-.09.83-.1,1.03-.05.43.14.84.56,1.24,1.27.39.71.66,1.45.8,2.21.09.48-.03,1.05-.35,1.69-.32.64-.9,1.6-1.74,2.88-.98,1.54-1.74,3.16-2.29,4.85-.55,1.7-.75,2.94-.6,3.72.2,1.08.97,1.5,2.3,1.26,1.41-.26,3.59-2.14,6.54-5.64l.43,2.32c-1.54,2.36-2.83,4.23-3.86,5.61-1.03,1.38-2.02,2.51-2.95,3.39-.94.88-1.82,1.39-2.65,1.54-.97.18-1.86-.12-2.67-.89-.81-.77-1.37-1.99-1.68-3.68-.18-.99-.14-2.17.14-3.53.27-1.36.76-2.88,1.47-4.54.71-1.67,1.53-3.35,2.48-5.05-.62.26-1.32.53-2.1.83-.78.3-1.6.61-2.47.94-.87.33-1.54.58-2,.76-.9,3.12-2.5,6.1-4.79,8.93Z"/><path class="cls-1" d="M133.23,52.2l.16.86c.25,1.36.78,2.36,1.59,3,.81.64,1.75.86,2.84.66s2.25-.69,3.36-1.44c1.11-.75,2.19-1.68,3.22-2.77,1.04-1.1,2.28-2.54,3.74-4.34l.39,2.11c-2.03,3.61-4.03,6.47-6,8.56s-4.14,3.35-6.49,3.79c-2.05.38-3.82-.12-5.31-1.49-1.49-1.37-2.49-3.44-3-6.2-.45-2.42-.29-4.72.48-6.9.77-2.18,2.23-4.6,4.38-7.26,1.48-1.82,3.01-3.27,4.6-4.35s3.06-1.74,4.42-1.99c1.08-.2,1.99-.11,2.71.27.73.38,1.18,1.06,1.36,2.05.27,1.45,0,3-.83,4.64-.82,1.64-2.21,3.37-4.17,5.2-1.96,1.83-4.45,3.7-7.46,5.61ZM133.16,49.89c1.93-1.19,3.52-2.52,4.77-3.99,1.25-1.47,2.13-2.82,2.63-4.04.5-1.22.71-2.09.61-2.6s-.39-.75-.87-.66c-.41.08-1.04.47-1.88,1.17-.84.7-1.65,1.57-2.45,2.6-.8,1.03-1.47,2.19-2.02,3.48-.55,1.29-.81,2.64-.79,4.04Z"/><path class="cls-1" d="M207.54,3.45l.43,2.35c.18.97.1,1.61-.23,1.94-.33.32-1.6,1.26-3.81,2.81-2.2,1.55-4.28,3.28-6.21,5.18.62-1.4,1.23-2.47,1.82-3.2.59-.73,1.41-1.65,2.44-2.77-1.11-.22-2.59-.17-4.44.17-2.86.53-5.84,1.66-8.94,3.4-3.1,1.74-5.66,3.6-7.69,5.6-2.03,1.99-2.94,3.52-2.75,4.58.1.55.54.94,1.31,1.17.77.23,1.95.3,3.54.21,1.59-.09,3.56-.32,5.9-.68,2.34-.36,5.22-.85,8.63-1.48,2.49-.46,4.11-.66,4.86-.61.75.05,1.18.41,1.31,1.08.16.85-.08,1.9-.72,3.15-.64,1.25-1.63,2.11-2.98,2.57-2.08.74-3.73,1.35-4.95,1.82-1.22.48-2.65,1.16-4.29,2.06-1.63.9-3.41,2.08-5.33,3.56-2.85,2.24-5.01,4.38-6.47,6.41-1.46,2.03-2.07,3.71-1.83,5.02.21,1.13,1,1.89,2.39,2.29,1.38.4,3.26.38,5.64-.06,8.18-1.51,15.84-6.72,22.97-15.63.46,2.25.58,4.28.36,6.1-.23,1.82-1.02,3.66-2.39,5.54-1.14,1.57-2.93,3.2-5.37,4.89s-5.17,3.18-8.18,4.47c-3.01,1.29-5.91,2.2-8.67,2.71-3.2.59-6,.31-8.38-.83-2.38-1.15-3.8-2.99-4.27-5.52-.34-1.84-.17-3.77.51-5.78.68-2.01,1.91-4.04,3.7-6.1,1.79-2.06,4.17-4.06,7.13-6.01,2.96-1.95,6.47-3.71,10.52-5.26.58-.23.84-.46.8-.72-.05-.28-.43-.38-1.15-.31-.71.07-2.01.27-3.89.59-1.88.32-3.55.55-5.01.67-1.46.12-3.02.1-4.69-.06-1.73-.21-3.16-.86-4.28-1.97-1.12-1.1-1.82-2.43-2.11-3.97-.37-1.98-.02-4.11,1.04-6.38,1.06-2.27,2.74-4.45,5.05-6.54,2.31-2.09,5.22-3.97,8.74-5.63,3.52-1.66,7.48-2.9,11.88-3.71,2.54-.47,4.33-.65,5.39-.55,1.06.1,1.71.38,1.96.82.25.44.49,1.31.73,2.6Z"/><path class="cls-1" d="M233.74,25.93c-3.23,5.26-4.67,8.78-4.35,10.56.18.99.68,1.41,1.48,1.26.67-.12,1.47-.63,2.42-1.54.94-.9,2.39-2.46,4.34-4.68l.44,2.39c-2.68,3.83-4.76,6.62-6.25,8.37-1.49,1.75-2.79,2.73-3.89,2.93-1.89.35-3.06-.72-3.52-3.21-.14-.74-.15-1.48-.06-2.24.1-.76.28-1.56.54-2.41.26-.85.67-2.07,1.24-3.66.56-1.59,1.22-3.4,1.97-5.42-1.19.91-2.59,2.54-4.21,4.89-1.06,1.48-1.94,2.87-2.63,4.15-.69,1.28-1.43,2.71-2.2,4.27-.77,1.56-1.35,2.62-1.74,3.18s-.82.88-1.3.97c-.74.14-1.56-.51-2.47-1.94-.91-1.43-1.55-3.17-1.93-5.22-.23-1.27-.27-2.29-.12-3.05.16-.77.54-1.89,1.15-3.36,1.14-2.74,2.18-4.78,3.12-6.13.94-1.35,1.94-2.13,3-2.32.74-.14,1.35-.12,1.85.05.5.17.79.52.89,1.05.04.23.02.49-.07.76-.09.28-.2.54-.34.78s-.42.71-.87,1.41c-2.9,4.7-4.24,7.66-4.02,8.85.12.67.4.96.84.88.28-.05.73-.59,1.36-1.63.63-1.03,1.44-2.39,2.43-4.06.99-1.67,2.2-3.45,3.63-5.33,1.43-1.88,3.1-3.75,5.03-5.61,1.06-1.08,2-1.69,2.81-1.84.37-.07.82.37,1.37,1.32.54.95.91,1.94,1.1,2.98.09.51-.26,1.37-1.06,2.59Z"/><path class="cls-1" d="M265.36,28.98l-9.74,11.55c-2.2,6.17-4.37,10.88-6.51,14.12-2.14,3.24-3.86,4.98-5.15,5.22-.69.13-1.12-.24-1.27-1.09-.31-1.66.15-3.94,1.35-6.83.48-1.14,1.07-2.27,1.75-3.4s1.35-2.11,1.99-2.96c.64-.85,1.5-1.91,2.58-3.19,1.07-1.28,1.81-2.16,2.2-2.64,1.44-5.13,2.44-9.03,2.99-11.7-1.74,2.7-3.28,4.94-4.63,6.71-1.34,1.77-2.61,3.18-3.82,4.22s-2.34,1.67-3.43,1.86c-1.18.22-2.43-.52-3.77-2.22-1.34-1.7-2.19-3.53-2.55-5.52-.17-.92-.14-1.93.1-3.02.24-1.09.71-2.3,1.41-3.62.7-1.32,1.64-2.71,2.82-4.18,1.18-1.47,2.61-2.95,4.29-4.45,3.16-2.89,5.73-4.52,7.71-4.89,1.48-.27,2.31.13,2.51,1.22.28,1.5-1.06,3.26-4,5.28-1.8,1.21-3.54,2.7-5.2,4.46-1.67,1.76-2.95,3.54-3.84,5.34-.9,1.8-1.23,3.33-.99,4.6.11.62.36,1.09.72,1.4.37.31.79.43,1.28.34.81-.15,1.66-.69,2.56-1.62.9-.93,2.19-2.51,3.88-4.75.77-1.02,1.74-2.63,2.92-4.81s2.18-3.87,3-5.06,1.63-1.86,2.44-2c.46-.08.86,0,1.2.23.34.24.56.63.66,1.18.2,1.06.06,2.68-.41,4.85-.47,2.17-1.38,5.75-2.72,10.74l7.25-7.63.41,2.25Z"/><path class="cls-1" d="M281.22,23.66l.46,2.52c-1.71,3.29-3.39,5.85-5.06,7.67-1.67,1.82-3.18,2.86-4.54,3.11-1.89.35-3.48-.38-4.77-2.2-1.29-1.81-2.15-3.89-2.58-6.25-.17-.9-.23-1.77-.2-2.63.03-.85.13-1.57.28-2.14.16-.58.48-1.49.96-2.75,2.33-5.7,4.86-8.8,7.58-9.3,1.41-.26,2.21.15,2.41,1.24.14.74-.11,1.97-.73,3.71-.62,1.74-1.23,3-1.82,3.8-1.65,2.31-2.71,3.89-3.18,4.77s-.62,1.79-.44,2.76c.15.83.59,1.46,1.32,1.9s1.58.57,2.57.38c1.08-.2,2.2-.82,3.36-1.85s2.61-2.62,4.36-4.75ZM276.02,8.64c-.58.11-1.16-.01-1.76-.35-.6-.34-.96-.85-1.08-1.52-.19-1.01.09-2.23.83-3.66s1.63-2.23,2.66-2.42c.69-.13,1.31-.02,1.85.32.54.34.88.92,1.03,1.72.18.99-.09,2.17-.81,3.55-.72,1.37-1.63,2.16-2.71,2.36Z"/><path class="cls-1" d="M303.06,13.17c-3.22,5.26-4.67,8.78-4.35,10.56.18.99.68,1.41,1.48,1.26.67-.12,1.47-.63,2.42-1.54.94-.9,2.39-2.46,4.34-4.68l.44,2.39c-2.68,3.83-4.76,6.62-6.25,8.37-1.49,1.75-2.79,2.73-3.89,2.93-1.89.35-3.06-.72-3.52-3.21-.14-.74-.15-1.48-.06-2.24.1-.76.28-1.56.54-2.41.26-.85.67-2.07,1.24-3.66.56-1.59,1.22-3.4,1.97-5.42-1.19.91-2.59,2.54-4.21,4.89-1.06,1.48-1.94,2.87-2.63,4.15-.69,1.28-1.43,2.71-2.2,4.27-.77,1.56-1.35,2.62-1.74,3.18-.39.56-.82.88-1.3.97-.74.14-1.56-.51-2.47-1.94-.91-1.43-1.55-3.17-1.93-5.22-.23-1.27-.27-2.29-.12-3.05.16-.77.54-1.89,1.15-3.36,1.14-2.74,2.18-4.78,3.12-6.13s1.94-2.13,3-2.32c.74-.14,1.35-.12,1.85.05.5.17.79.52.89,1.05.04.23.02.49-.07.76-.09.28-.2.54-.34.78s-.42.71-.87,1.41c-2.9,4.7-4.24,7.66-4.02,8.85.12.67.4.96.84.88.28-.05.73-.59,1.36-1.63.63-1.03,1.44-2.39,2.43-4.06.99-1.67,2.2-3.45,3.63-5.33,1.43-1.88,3.1-3.75,5.03-5.61,1.06-1.08,2-1.69,2.81-1.84.37-.07.83.37,1.37,1.32.54.95.91,1.94,1.1,2.98.09.51-.26,1.37-1.06,2.59Z"/><path class="cls-1" d="M312.53,19.18l.16.86c.25,1.36.78,2.36,1.59,3s1.75.86,2.84.66,2.25-.69,3.36-1.44c1.11-.75,2.19-1.68,3.22-2.77,1.04-1.1,2.28-2.54,3.74-4.34l.39,2.11c-2.03,3.61-4.03,6.47-6,8.56s-4.14,3.35-6.49,3.79c-2.05.38-3.82-.12-5.31-1.49s-2.49-3.44-3-6.2c-.45-2.42-.29-4.72.48-6.9s2.23-4.6,4.38-7.26c1.48-1.82,3.01-3.27,4.6-4.35s3.06-1.74,4.42-1.99c1.08-.2,1.99-.11,2.71.27.73.38,1.18,1.06,1.36,2.05.27,1.45,0,3-.83,4.64-.82,1.64-2.21,3.37-4.17,5.2s-4.45,3.7-7.46,5.61ZM312.47,16.87c1.93-1.19,3.52-2.52,4.77-3.99,1.25-1.47,2.13-2.82,2.63-4.04.5-1.22.71-2.09.61-2.6s-.39-.75-.87-.66c-.41.08-1.04.47-1.88,1.17-.84.7-1.65,1.57-2.45,2.6-.8,1.03-1.47,2.19-2.02,3.48-.55,1.29-.81,2.64-.79,4.04Z"/></g></svg>